<?xml version="1.0" encoding="UTF-8"?>
<svg xmlns="http://www.w3.org/2000/svg" width="720" height="420" viewBox="0 0 720 420">
  <defs>
    <linearGradient id="bg" x1="0" y1="0" x2="1" y2="1">
      <stop offset="0" stop-color="#101923"/>
      <stop offset="1" stop-color="#233342"/>
    </linearGradient>
    <radialGradient id="glow" cx="58%" cy="44%" r="34%">
      <stop offset="0" stop-color="#2fd08b" stop-opacity="0.42"/>
      <stop offset="1" stop-color="#2fd08b" stop-opacity="0"/>
    </radialGradient>
    <filter id="shadow">
      <feDropShadow dx="0" dy="8" stdDeviation="8" flood-color="#000" flood-opacity="0.45"/>
    </filter>
  </defs>
  <rect width="720" height="420" rx="28" fill="url(#bg)"/>
  <g opacity="0.42" stroke="#3e5060" stroke-width="1">
    <path d="M0 82H720M0 164H720M0 246H720M0 328H720M92 0V420M204 0V420M316 0V420M428 0V420M540 0V420M652 0V420"/>
  </g>
  <g fill="#2b3b4a" stroke="#405466" stroke-width="1" opacity="0.58">
    <rect x="44" y="36" width="98" height="64" rx="7"/>
    <rect x="170" y="54" width="82" height="52" rx="7"/>
    <rect x="294" y="34" width="118" height="76" rx="7"/>
    <rect x="506" y="124" width="126" height="86" rx="7"/>
    <rect x="70" y="206" width="126" height="78" rx="7"/>
    <rect x="238" y="300" width="138" height="68" rx="7"/>
    <rect x="420" y="292" width="98" height="66" rx="7"/>
    <rect x="560" y="286" width="98" height="60" rx="7"/>
  </g>
  <g opacity="0.66" stroke="#6f8293" stroke-width="8" stroke-linecap="round" fill="none">
    <path d="M-20 286 C118 246 210 236 318 260 S508 316 740 278"/>
    <path d="M80 410 C138 312 190 238 270 178 S430 92 640 70"/>
    <path d="M32 142 C170 172 300 162 420 126 S592 72 720 104"/>
  </g>
  <circle cx="420" cy="188" r="122" fill="url(#glow)"/>
  <g filter="url(#shadow)" transform="translate(420 188)">
    <path d="M0 -56c-31 0-56 25-56 56 0 43 56 96 56 96s56-53 56-96c0-31-25-56-56-56z" fill="#ff4d4d" stroke="#fff" stroke-width="5"/>
    <circle r="18" fill="#fff"/>
    <circle r="7" fill="#2fd08b"/>
  </g>
  <g transform="translate(36 310)">
    <rect width="504" height="82" rx="18" fill="#08111a" opacity="0.78"/>
    <text x="22" y="30" fill="#ffffff" font-family="Arial, sans-serif" font-size="18" font-weight="800">Shenzhen Huanyin Technology Co., Ltd.</text>
    <text x="22" y="56" fill="#cbd5e1" font-family="Arial, sans-serif" font-size="13">No. 1006, Longteli Technology Building, Shenzhen, China</text>
  </g>
  <text x="678" y="386" text-anchor="end" fill="#9fb0bb" font-family="monospace" font-size="12">Shenzhen, Guangdong</text>
</svg>
