<?xml version="1.0" encoding="UTF-8"?>
<svg xmlns="http://www.w3.org/2000/svg" width="600" height="240" viewBox="0 0 600 240">
  <defs>
    <radialGradient id="glow_bangkok" cx="52%" cy="48%" r="25%">
      <stop offset="0%" stop-color="#e74c3c" stop-opacity="0.25"/>
      <stop offset="100%" stop-color="#e74c3c" stop-opacity="0"/>
    </radialGradient>
    <filter id="shadow_bangkok">
      <feDropShadow dx="0" dy="2" stdDeviation="3" flood-color="#000" flood-opacity="0.5"/>
    </filter>
  </defs>
  <rect fill="#1a1d23" width="600" height="240"/>
  <g stroke="#2a2d35" stroke-width="1" opacity="0.6">
    <line x1="0" y1="40" x2="600" y2="40"/>
    <line x1="0" y1="80" x2="600" y2="80"/>
    <line x1="0" y1="120" x2="600" y2="120"/>
    <line x1="0" y1="160" x2="600" y2="160"/>
    <line x1="0" y1="200" x2="600" y2="200"/>
    <line x1="100" y1="0" x2="100" y2="240"/>
    <line x1="200" y1="0" x2="200" y2="240"/>
    <line x1="300" y1="0" x2="300" y2="240"/>
    <line x1="400" y1="0" x2="400" y2="240"/>
    <line x1="500" y1="0" x2="500" y2="240"/>
  </g>
  <g stroke="#23262b" stroke-width="0.5" opacity="0.4">
    <line x1="0" y1="20" x2="600" y2="20"/>
    <line x1="0" y1="60" x2="600" y2="60"/>
    <line x1="0" y1="100" x2="600" y2="100"/>
    <line x1="0" y1="140" x2="600" y2="140"/>
    <line x1="0" y1="180" x2="600" y2="180"/>
    <line x1="0" y1="220" x2="600" y2="220"/>
    <line x1="50" y1="0" x2="50" y2="240"/>
    <line x1="150" y1="0" x2="150" y2="240"/>
    <line x1="250" y1="0" x2="250" y2="240"/>
    <line x1="350" y1="0" x2="350" y2="240"/>
    <line x1="450" y1="0" x2="450" y2="240"/>
    <line x1="550" y1="0" x2="550" y2="240"/>
  </g>
  <g fill="#252830" stroke="#2a2d35" stroke-width="0.5">
    <rect x="30" y="30" width="55" height="35" rx="2"/>
    <rect x="120" y="50" width="70" height="45" rx="2"/>
    <rect x="220" y="25" width="60" height="30" rx="2"/>
    <rect x="310" y="45" width="80" height="50" rx="2"/>
    <rect x="420" y="35" width="65" height="40" rx="2"/>
    <rect x="510" y="55" width="75" height="35" rx="2"/>
    <rect x="45" y="130" width="65" height="50" rx="2"/>
    <rect x="140" y="145" width="55" height="35" rx="2"/>
    <rect x="240" y="135" width="75" height="55" rx="2"/>
    <rect x="350" y="150" width="60" height="40" rx="2"/>
    <rect x="440" y="130" width="70" height="50" rx="2"/>
    <rect x="530" y="140" width="55" height="45" rx="2"/>
    <rect x="70" y="85" width="40" height="25" rx="2"/>
    <rect x="180" y="90" width="50" height="30" rx="2"/>
    <rect x="380" y="85" width="45" height="35" rx="2"/>
    <rect x="480" y="95" width="55" height="25" rx="2"/>
    <rect x="15" y="195" width="80" height="35" rx="2"/>
    <rect x="130" y="200" width="60" height="30" rx="2"/>
    <rect x="280" y="195" width="90" height="35" rx="2"/>
    <rect x="410" y="205" width="70" height="25" rx="2"/>
    <rect x="520" y="195" width="65" height="35" rx="2"/>
  </g>
  <g fill="#1a2440" opacity="0.5">
    <rect x="0" y="0" width="25" height="240"/>
    <rect x="575" y="0" width="25" height="240"/>
    <rect x="100" y="220" width="200" height="20"/>
  </g>
  <g stroke="#3a3d45" stroke-width="3" opacity="0.5">
    <line x1="0" y1="120" x2="600" y2="120"/>
    <line x1="300" y1="0" x2="300" y2="240"/>
  </g>
  <circle cx="312" cy="115" r="40" fill="url(#glow_bangkok)"/>
  <g filter="url(#shadow_bangkok)" transform="translate(312,115)">
    <ellipse cx="0" cy="0" rx="14" ry="14" fill="#e74c3c" stroke="#fff" stroke-width="2.5"/>
    <polygon points="-6,-14 6,-14 0,12" fill="#e74c3c"/>
    <circle cx="0" cy="0" r="5" fill="#fff"/>
  </g>
  <text fill="#555" font-family="monospace" font-size="9" x="580" y="232" text-anchor="end">13.7563, 100.5018</text>
</svg>